<?xml version="1.0" encoding="utf-8"?>
<!-- Generator: Adobe Illustrator 24.0.1, SVG Export Plug-In . SVG Version: 6.00 Build 0)  -->
<svg version="1.1" id="Layer_1" focusable="false" xmlns="http://www.w3.org/2000/svg" xmlns:xlink="http://www.w3.org/1999/xlink"
	 x="0px" y="0px" viewBox="0 0 512 512" style="enable-background:new 0 0 512 512;" xml:space="preserve">
<style type="text/css">
	.st0{fill:#038CF4;}
</style>
<path class="st0" d="M496.2,128H176c-8.8,0-16-7.2-16-16V80c0-8.8,7.2-16,16-16h320.2c8.8,0,16,7.2,16,16v32
	C512.1,120.8,505,128,496.2,128z"/>
<path class="st0" d="M496.2,448H176c-8.8,0-16-7.2-16-16v-32c0-8.8,7.2-16,16-16h320.2c8.8,0,16,7.2,16,16v32
	C512.1,440.8,505,448,496.2,448z"/>
<path class="st0" d="M496.2,288.5H176c-8.8,0-16-7.2-16-16v-32c0-8.8,7.2-16,16-16h320.2c8.8,0,16,7.2,16,16v32
	C512.1,281.3,505,288.5,496.2,288.5z"/>
<line class="st0" x1="159.9" y1="119.8" x2="159.9" y2="210.8"/>
<path class="st0" d="M145.8,61.5l-22.7-22.7c-6.2-6.2-16.4-6.2-22.6,0L64,75.5L49.9,61.4c-6.2-6.2-16.4-6.2-22.6,0L4.7,84.1
	c-6.2,6.2-6.2,16.4,0,22.6l14.1,14.1L50,152c7.7,7.7,20.2,7.7,27.9,0l31.3-31.3l36.6-36.6C152.1,77.9,152.1,67.8,145.8,61.5z"/>
<path class="st0" d="M145.8,222l-22.7-22.7c-6.2-6.2-16.4-6.2-22.6,0L64,236l-14.1-14.1c-6.2-6.2-16.4-6.2-22.6,0L4.7,244.6
	c-6.2,6.2-6.2,16.4,0,22.6l14.1,14.1L50,312.5c7.7,7.7,20.2,7.7,27.9,0l31.3-31.3l36.6-36.6C152.1,238.4,152.1,228.3,145.8,222z"/>
<path class="st0" d="M145.8,382.5l-22.7-22.7c-6.2-6.2-16.4-6.2-22.6,0L64,396.5l-14.1-14.1c-6.2-6.2-16.4-6.2-22.6,0L4.7,405.1
	c-6.2,6.2-6.2,16.4,0,22.6l14.1,14.1L50,473c7.7,7.7,20.2,7.7,27.9,0l31.3-31.3l36.6-36.6C152.1,398.9,152.1,388.8,145.8,382.5z"/>
</svg>
