<?xml version="1.0" encoding="utf-8"?>
<!-- Generator: Adobe Illustrator 24.0.1, SVG Export Plug-In . SVG Version: 6.00 Build 0)  -->
<svg version="1.1" id="Layer_1" focusable="false" xmlns="http://www.w3.org/2000/svg" xmlns:xlink="http://www.w3.org/1999/xlink"
	 x="0px" y="0px" viewBox="0 0 512 512" style="enable-background:new 0 0 512 512;" xml:space="preserve">
<style type="text/css">
	.st0{fill:#038CF4;}
</style>
<path class="st0" d="M496.2,128H176c-8.8,0-16-7.2-16-16V80c0-8.8,7.2-16,16-16h320.2c8.8,0,16,7.2,16,16v32
	C512.1,120.8,505,128,496.2,128z"/>
<path class="st0" d="M496.2,448H176c-8.8,0-16-7.2-16-16v-32c0-8.8,7.2-16,16-16h320.2c8.8,0,16,7.2,16,16v32
	C512.1,440.8,505,448,496.2,448z"/>
<path class="st0" d="M496.2,288.5H176c-8.8,0-16-7.2-16-16v-32c0-8.8,7.2-16,16-16h320.2c8.8,0,16,7.2,16,16v32
	C512.1,281.3,505,288.5,496.2,288.5z"/>
<line class="st0" x1="159.9" y1="119.8" x2="159.9" y2="210.8"/>
<path class="st0" d="M65.3,30.7C29.3,30.7,0,59.9,0,96s29.3,65.3,65.3,65.3s65.3-29.3,65.3-65.3S101.4,30.7,65.3,30.7z M65.3,128.7
	c-18,0-32.7-14.6-32.7-32.7s14.6-32.7,32.7-32.7C83.4,63.3,98,78,98,96S83.4,128.7,65.3,128.7z"/>
<path class="st0" d="M65.3,191.2C29.3,191.2,0,220.4,0,256.5s29.3,65.3,65.3,65.3s65.3-29.3,65.3-65.3S101.4,191.2,65.3,191.2z
	 M65.3,289.2c-18,0-32.7-14.6-32.7-32.7s14.6-32.7,32.7-32.7c18,0,32.7,14.6,32.7,32.7S83.4,289.2,65.3,289.2z"/>
<path class="st0" d="M65.3,351.7C29.3,351.7,0,380.9,0,417s29.3,65.3,65.3,65.3s65.3-29.3,65.3-65.3S101.4,351.7,65.3,351.7z
	 M65.3,449.7c-18,0-32.7-14.6-32.7-32.7s14.6-32.7,32.7-32.7c18,0,32.7,14.6,32.7,32.7S83.4,449.7,65.3,449.7z"/>
</svg>
