<?xml version="1.0" encoding="utf-8"?>
<!-- Generator: Adobe Illustrator 24.0.1, SVG Export Plug-In . SVG Version: 6.00 Build 0)  -->
<svg version="1.1" id="Capa_1" xmlns="http://www.w3.org/2000/svg" xmlns:xlink="http://www.w3.org/1999/xlink" x="0px" y="0px"
	 viewBox="0 0 512.2 512.2" style="enable-background:new 0 0 512.2 512.2;" xml:space="preserve">
<style type="text/css">
	.st0{fill:#038CF4;}
</style>
<path id="right-arrow" class="st0" d="M-24.5,236.9c-0.5-0.5-1-0.9-1.5-1.3l0-0.5l-199.4-199c-5-5.2-12.1-8.4-19.9-8.4
	c-15.3,0-27.8,12.4-27.8,27.8c0,0.7,0,1.3,0.1,2l0,0V173h-227.3c-15.3,0-27.8,12.4-27.8,27.8v110.2c0,15.3,12.4,27.8,27.8,27.8
	h227.3v116.4c-0.5,7.7,2.2,15.5,8.1,21.3c10.9,10.9,28.4,10.9,39.3,0l201.1-200.4C-13.6,265.4-13.6,247.8-24.5,236.9z"/>
<path id="plus" class="st0" d="M475.6,201.2H311V36.6C311,16.4,294.6,0,274.4,0h-36.6c-20.2,0-36.6,16.4-36.6,36.6v164.6H36.6
	C16.4,201.2,0,217.6,0,237.8v36.6C0,294.6,16.4,311,36.6,311h164.6v164.6c0,20.2,16.4,36.6,36.6,36.6h36.6
	c20.2,0,36.6-16.4,36.6-36.6V311h164.6c20.2,0,36.6-16.4,36.6-36.6v-36.6C512.2,217.6,495.8,201.2,475.6,201.2z"/>
</svg>
