<?xml version="1.0" encoding="utf-8"?>
<!-- Generator: Adobe Illustrator 24.0.1, SVG Export Plug-In . SVG Version: 6.00 Build 0)  -->
<svg version="1.1" id="Capa_1" xmlns="http://www.w3.org/2000/svg" xmlns:xlink="http://www.w3.org/1999/xlink" x="0px" y="0px"
	 viewBox="0 0 512.2 512.2" style="enable-background:new 0 0 512.2 512.2;" xml:space="preserve">
<style type="text/css">
	.st0{fill:#038CF4;}
</style>
<image style="display:none;overflow:visible;opacity:0.39;" width="576" height="460" xlink:href="3C9C462E.jpg"  transform="matrix(1.1109 0 0 1.1109 -63.8304 0.6)">
</image>
<path class="st0" d="M504.1,236.9c-0.5-0.5-1-0.9-1.5-1.3l0-0.5l-199.4-199c-5-5.2-12.1-8.4-19.9-8.4c-15.3,0-27.8,12.4-27.8,27.8
	c0,0.7,0,1.3,0.1,2l0,0V173H28.3C13,173,0.5,185.5,0.5,200.8v110.2c0,15.3,12.4,27.8,27.8,27.8h227.3v116.4
	c-0.5,7.7,2.2,15.5,8.1,21.3c10.9,10.9,28.4,10.9,39.3,0l201.1-200.4C514.9,265.4,514.9,247.8,504.1,236.9z"/>
</svg>
